<svg width="19" height="15" viewBox="0 0 19 15" fill="none" xmlns="http://www.w3.org/2000/svg">
<path fill-rule="evenodd" clip-rule="evenodd" d="M18.2833 2.0148C17.62 2.30695 16.9172 2.49982 16.1977 2.5872C16.9549 2.13181 17.5218 1.41788 17.7937 0.577199C17.078 0.99376 16.2982 1.28895 15.4861 1.4508C14.94 0.865582 14.2157 0.477225 13.4261 0.346121C12.6364 0.215017 11.8256 0.348513 11.1196 0.725851C10.4137 1.10319 9.85218 1.70322 9.52248 2.43263C9.19277 3.16205 9.11333 3.97997 9.2965 4.7592C7.8532 4.68959 6.44076 4.31669 5.1512 3.66477C3.86164 3.01286 2.7239 2.09657 1.8121 0.9756C1.4965 1.5084 1.3201 2.1276 1.3201 2.802C1.3201 4.0644 1.9621 5.1744 2.9353 5.826C2.3589 5.8075 1.79525 5.65157 1.2913 5.3712V5.4168C1.29068 6.25576 1.58039 7.06908 2.11125 7.71872C2.64212 8.36836 3.38143 8.81428 4.2037 8.9808C3.67111 9.12292 3.11343 9.14383 2.5717 9.042C2.80507 9.76367 3.25778 10.3946 3.86675 10.8467C4.47571 11.2989 5.21057 11.5497 5.9689 11.5644C5.21667 12.1555 4.35537 12.5926 3.43418 12.8508C2.51299 13.109 1.54997 13.1832 0.600098 13.0692C2.26533 14.1354 4.20156 14.7014 6.1789 14.7C12.8629 14.7 16.5121 9.1668 16.5121 4.3752C16.5121 4.2216 16.5121 4.0656 16.5013 3.9108C17.2147 3.39752 17.8301 2.76019 18.3181 2.0292L18.2821 2.0148H18.2833Z" fill="white"/>
</svg>
